<?xml version="1.0" standalone="no"?>
<svg xmlns:xlink="http://www.w3.org/1999/xlink" id="wave" style="transform:rotate(0deg); transition: 0.3s" viewBox="0 0 1440 490" version="1.1" xmlns="http://www.w3.org/2000/svg"><defs><linearGradient id="sw-gradient-0" x1="0" x2="0" y1="1" y2="0"><stop stop-color="rgba(32, 32, 32, 1)" offset="0%"/><stop stop-color="rgba(128, 128, 128, 1)" offset="100%"/></linearGradient></defs><path style="transform:translate(0, 0px); opacity:1" fill="url(#sw-gradient-0)" d="M0,392L12,351.2C24,310,48,229,72,163.3C96,98,120,49,144,57.2C168,65,192,131,216,147C240,163,264,131,288,106.2C312,82,336,65,360,49C384,33,408,16,432,81.7C456,147,480,294,504,294C528,294,552,147,576,81.7C600,16,624,33,648,73.5C672,114,696,180,720,171.5C744,163,768,82,792,81.7C816,82,840,163,864,204.2C888,245,912,245,936,220.5C960,196,984,147,1008,171.5C1032,196,1056,294,1080,318.5C1104,343,1128,294,1152,285.8C1176,278,1200,310,1224,326.7C1248,343,1272,343,1296,351.2C1320,359,1344,376,1368,383.8C1392,392,1416,392,1440,367.5C1464,343,1488,294,1512,228.7C1536,163,1560,82,1584,81.7C1608,82,1632,163,1656,171.5C1680,180,1704,114,1716,81.7L1728,49L1728,490L1716,490C1704,490,1680,490,1656,490C1632,490,1608,490,1584,490C1560,490,1536,490,1512,490C1488,490,1464,490,1440,490C1416,490,1392,490,1368,490C1344,490,1320,490,1296,490C1272,490,1248,490,1224,490C1200,490,1176,490,1152,490C1128,490,1104,490,1080,490C1056,490,1032,490,1008,490C984,490,960,490,936,490C912,490,888,490,864,490C840,490,816,490,792,490C768,490,744,490,720,490C696,490,672,490,648,490C624,490,600,490,576,490C552,490,528,490,504,490C480,490,456,490,432,490C408,490,384,490,360,490C336,490,312,490,288,490C264,490,240,490,216,490C192,490,168,490,144,490C120,490,96,490,72,490C48,490,24,490,12,490L0,490Z"/><defs><linearGradient id="sw-gradient-1" x1="0" x2="0" y1="1" y2="0"><stop stop-color="rgba(32, 32, 32, 1)" offset="0%"/><stop stop-color="rgba(150.984, 255, 0, 1)" offset="100%"/></linearGradient></defs><path style="transform:translate(0, 50px); opacity:0.9" fill="url(#sw-gradient-1)" d="M0,147L12,187.8C24,229,48,310,72,285.8C96,261,120,131,144,81.7C168,33,192,65,216,130.7C240,196,264,294,288,334.8C312,376,336,359,360,318.5C384,278,408,212,432,187.8C456,163,480,180,504,212.3C528,245,552,294,576,285.8C600,278,624,212,648,196C672,180,696,212,720,187.8C744,163,768,82,792,106.2C816,131,840,261,864,310.3C888,359,912,327,936,326.7C960,327,984,359,1008,326.7C1032,294,1056,196,1080,171.5C1104,147,1128,196,1152,245C1176,294,1200,343,1224,343C1248,343,1272,294,1296,253.2C1320,212,1344,180,1368,163.3C1392,147,1416,147,1440,122.5C1464,98,1488,49,1512,24.5C1536,0,1560,0,1584,73.5C1608,147,1632,294,1656,310.3C1680,327,1704,212,1716,155.2L1728,98L1728,490L1716,490C1704,490,1680,490,1656,490C1632,490,1608,490,1584,490C1560,490,1536,490,1512,490C1488,490,1464,490,1440,490C1416,490,1392,490,1368,490C1344,490,1320,490,1296,490C1272,490,1248,490,1224,490C1200,490,1176,490,1152,490C1128,490,1104,490,1080,490C1056,490,1032,490,1008,490C984,490,960,490,936,490C912,490,888,490,864,490C840,490,816,490,792,490C768,490,744,490,720,490C696,490,672,490,648,490C624,490,600,490,576,490C552,490,528,490,504,490C480,490,456,490,432,490C408,490,384,490,360,490C336,490,312,490,288,490C264,490,240,490,216,490C192,490,168,490,144,490C120,490,96,490,72,490C48,490,24,490,12,490L0,490Z"/><defs><linearGradient id="sw-gradient-2" x1="0" x2="0" y1="1" y2="0"><stop stop-color="rgba(32, 32, 32, 1)" offset="0%"/><stop stop-color="rgba(128, 128, 128, 1)" offset="100%"/></linearGradient></defs><path style="transform:translate(0, 100px); opacity:0.8" fill="url(#sw-gradient-2)" d="M0,441L12,383.8C24,327,48,212,72,163.3C96,114,120,131,144,171.5C168,212,192,278,216,253.2C240,229,264,114,288,65.3C312,16,336,33,360,106.2C384,180,408,310,432,318.5C456,327,480,212,504,196C528,180,552,261,576,310.3C600,359,624,376,648,359.3C672,343,696,294,720,294C744,294,768,343,792,359.3C816,376,840,359,864,294C888,229,912,114,936,89.8C960,65,984,131,1008,187.8C1032,245,1056,294,1080,334.8C1104,376,1128,408,1152,424.7C1176,441,1200,441,1224,367.5C1248,294,1272,147,1296,114.3C1320,82,1344,163,1368,212.3C1392,261,1416,278,1440,277.7C1464,278,1488,261,1512,261.3C1536,261,1560,278,1584,245C1608,212,1632,131,1656,106.2C1680,82,1704,114,1716,130.7L1728,147L1728,490L1716,490C1704,490,1680,490,1656,490C1632,490,1608,490,1584,490C1560,490,1536,490,1512,490C1488,490,1464,490,1440,490C1416,490,1392,490,1368,490C1344,490,1320,490,1296,490C1272,490,1248,490,1224,490C1200,490,1176,490,1152,490C1128,490,1104,490,1080,490C1056,490,1032,490,1008,490C984,490,960,490,936,490C912,490,888,490,864,490C840,490,816,490,792,490C768,490,744,490,720,490C696,490,672,490,648,490C624,490,600,490,576,490C552,490,528,490,504,490C480,490,456,490,432,490C408,490,384,490,360,490C336,490,312,490,288,490C264,490,240,490,216,490C192,490,168,490,144,490C120,490,96,490,72,490C48,490,24,490,12,490L0,490Z"/></svg>